Normalized EMG Linear Envelopes
nRows=157
nColumns=4

endheader
time	 med_gas_r	  soleus_r	 tib_ant_r	
4.18723	  0.096044	  0.114564	  0.042037	
4.24973	  0.095068	  0.119507	  0.039710	
4.31222	  0.094903	  0.117312	  0.038207	
4.37472	  0.096190	  0.114561	  0.038175	
4.43722	  0.097784	  0.114017	  0.039060	
4.49971	  0.096749	  0.112528	  0.040185	
4.56221	  0.093572	  0.111685	  0.041110	
4.6247	  0.090320	  0.110882	  0.041401	
4.6872	  0.087720	  0.109873	  0.040187	
4.7497	  0.086940	  0.108515	  0.038327	
4.81219	  0.089473	  0.106742	  0.035992	
4.87469	  0.093446	  0.108098	  0.033715	
4.93718	  0.095938	  0.113779	  0.032153	
4.99968	  0.096909	  0.120459	  0.032525	
5.06218	  0.096661	  0.123525	  0.037443	
5.12467	  0.097282	  0.121669	  0.049495	
5.18717	  0.101554	  0.118803	  0.069732	
5.24966	  0.111150	  0.117624	  0.096955	
5.31216	  0.127669	  0.118466	  0.123983	
5.37466	  0.150074	  0.118166	  0.142468	
5.43715	  0.172553	  0.117752	  0.150316	
5.49965	  0.195653	  0.119273	  0.154709	
5.56214	  0.229860	  0.120594	  0.158941	
5.62464	  0.271446	  0.120403	  0.162980	
5.68714	  0.290272	  0.119985	  0.167547	
5.74963	  0.270747	  0.118488	  0.172881	
5.81213	  0.236158	  0.115846	  0.179065	
5.87462	  0.204810	  0.113836	  0.185443	
5.93712	  0.183782	  0.113656	  0.188947	
5.99962	  0.173300	  0.116689	  0.187387	
6.06211	  0.170739	  0.123694	  0.180090	
6.12461	  0.167583	  0.131667	  0.165939	
6.1871	  0.167285	  0.134126	  0.154759	
6.2496	  0.166533	  0.129286	  0.156132	
6.3121	  0.168606	  0.122947	  0.164563	
6.37459	  0.171687	  0.118462	  0.170302	
6.43709	  0.178669	  0.115425	  0.174802	
6.49958	  0.191996	  0.117361	  0.179967	
6.56208	  0.208305	  0.125233	  0.184450	
6.62458	  0.220290	  0.134230	  0.190562	
6.68707	  0.231541	  0.138709	  0.201493	
6.74957	  0.249130	  0.143505	  0.216790	
6.81206	  0.269546	  0.149310	  0.234773	
6.87456	  0.285911	  0.151258	  0.252659	
6.93706	  0.298195	  0.147166	  0.271373	
6.99955	  0.315611	  0.143113	  0.304561	
7.06205	  0.335098	  0.142403	  0.353194	
7.12454	  0.348165	  0.144102	  0.411601	
7.18704	  0.357238	  0.148408	  0.471776	
7.24954	  0.372437	  0.154925	  0.528209	
7.31203	  0.388143	  0.165723	  0.570274	
7.37453	  0.400471	  0.180622	  0.584927	
7.43702	  0.414976	  0.192824	  0.577632	
7.49952	  0.429122	  0.193926	  0.577478	
7.56202	  0.447408	  0.187085	  0.577532	
7.62451	  0.469885	  0.177781	  0.563353	
7.68701	  0.484211	  0.166735	  0.546511	
7.7495	  0.486837	  0.159698	  0.538048	
7.812	  0.468408	  0.160402	  0.538788	
7.8745	  0.432343	  0.167618	  0.532904	
7.93699	  0.401378	  0.177714	  0.517907	
7.99949	  0.385712	  0.186459	  0.493313	
8.06198	  0.382918	  0.192263	  0.473778	
8.12448	  0.388307	  0.194078	  0.465284	
8.18698	  0.387229	  0.200201	  0.461224	
8.24947	  0.382219	  0.213863	  0.455856	
8.31197	  0.377743	  0.228378	  0.453716	
8.37446	  0.374818	  0.237344	  0.464696	
8.43696	  0.373207	  0.240522	  0.474816	
8.49946	  0.375857	  0.249301	  0.460327	
8.56195	  0.384784	  0.265642	  0.426665	
8.62445	  0.387432	  0.280649	  0.394708	
8.68694	  0.387401	  0.286752	  0.375273	
8.74944	  0.390168	  0.294286	  0.374141	
8.81194	  0.399362	  0.302739	  0.389536	
8.87443	  0.406659	  0.294728	  0.416825	
8.93693	  0.411631	  0.275848	  0.448441	
8.99942	  0.408385	  0.252223	  0.474185	
9.06192	  0.383139	  0.229167	  0.475974	
9.12442	  0.341239	  0.208541	  0.446264	
9.18691	  0.297100	  0.199039	  0.390775	
9.24941	  0.272044	  0.200810	  0.339831	
9.3119	  0.266474	  0.202868	  0.310869	
9.3744	  0.269562	  0.200087	  0.304303	
9.4369	  0.272616	  0.191397	  0.308557	
9.49939	  0.275533	  0.183112	  0.320349	
9.56189	  0.286388	  0.185612	  0.340685	
9.62438	  0.295451	  0.203777	  0.358388	
9.68688	  0.305386	  0.236264	  0.366742	
9.74938	  0.324042	  0.269573	  0.365579	
9.81187	  0.341768	  0.298198	  0.360118	
9.87437	  0.350942	  0.309548	  0.356130	
9.93686	  0.355944	  0.298699	  0.354158	
9.99936	  0.356464	  0.277631	  0.363415	
10.0619	  0.350685	  0.253270	  0.375759	
10.1244	  0.341584	  0.235747	  0.385218	
10.1868	  0.327544	  0.229470	  0.383186	
10.2493	  0.309970	  0.228059	  0.365774	
10.3118	  0.288065	  0.215350	  0.343611	
10.3743	  0.259890	  0.190385	  0.324577	
10.4368	  0.231238	  0.163671	  0.307054	
10.4993	  0.203144	  0.145281	  0.296948	
10.5618	  0.174249	  0.137888	  0.297553	
10.6243	  0.144690	  0.134389	  0.304237	
10.6868	  0.126206	  0.129058	  0.317494	
10.7493	  0.123206	  0.120889	  0.325318	
10.8118	  0.133138	  0.111535	  0.314862	
10.8743	  0.154626	  0.103503	  0.298327	
10.9368	  0.180414	  0.099591	  0.285186	
10.9993	  0.195264	  0.102541	  0.272450	
11.0618	  0.188286	  0.108862	  0.254946	
11.1243	  0.175810	  0.114446	  0.233801	
11.1868	  0.173729	  0.119428	  0.217408	
11.2493	  0.184793	  0.122341	  0.209290	
11.3118	  0.192302	  0.122550	  0.208667	
11.3743	  0.191856	  0.119141	  0.211700	
11.4368	  0.196097	  0.117968	  0.215430	
11.4993	  0.201887	  0.121108	  0.217977	
11.5618	  0.195813	  0.125467	  0.218808	
11.6243	  0.180223	  0.128179	  0.222054	
11.6868	  0.168777	  0.129333	  0.228053	
11.7492	  0.162682	  0.129984	  0.232881	
11.8117	  0.157579	  0.128265	  0.229071	
11.8742	  0.152603	  0.124859	  0.219539	
11.9367	  0.149684	  0.120182	  0.208628	
11.9992	  0.148062	  0.114730	  0.195584	
12.0617	  0.146837	  0.110702	  0.178146	
12.1242	  0.144926	  0.107143	  0.161346	
12.1867	  0.140002	  0.104950	  0.154611	
12.2492	  0.136320	  0.106956	  0.159650	
12.3117	  0.136245	  0.111087	  0.168446	
12.3742	  0.136632	  0.111940	  0.172830	
12.4367	  0.139482	  0.110787	  0.172208	
12.4992	  0.141974	  0.111109	  0.165557	
12.5617	  0.141042	  0.112461	  0.158451	
12.6242	  0.140116	  0.113793	  0.154068	
12.6867	  0.141498	  0.115182	  0.151899	
12.7492	  0.143530	  0.115781	  0.151938	
12.8117	  0.148657	  0.116552	  0.154440	
12.8742	  0.154389	  0.119750	  0.159379	
12.9367	  0.158607	  0.123441	  0.164400	
12.9992	  0.158700	  0.121685	  0.163795	
13.0617	  0.153897	  0.116172	  0.158400	
13.1242	  0.152311	  0.110577	  0.151929	
13.1867	  0.152265	  0.107454	  0.149927	
13.2492	  0.149483	  0.108796	  0.151766	
13.3116	  0.146922	  0.111115	  0.155921	
13.3741	  0.145167	  0.111060	  0.156568	
13.4366	  0.144636	  0.110739	  0.153979	
13.4991	  0.146454	  0.110300	  0.150499	
13.5616	  0.147562	  0.108164	  0.145479	
13.6241	  0.147608	  0.105639	  0.143649	
13.6866	  0.147359	  0.106966	  0.147676	
13.7491	  0.147844	  0.111121	  0.153696	
13.8116	  0.148526	  0.113613	  0.155763	
13.8741	  0.149125	  0.113930	  0.151413	
13.9366	  0.147994	  0.114793	  0.141219	
